STARTFONT 2.1
FONT -Fondu-Courier-Medium-R-Normal--14-130-75-75-P-80-MacRoman-1
SIZE 13 75 75
FONTBOUNDINGBOX 11 14 0 -3
COMMENT Created by Fondu from a mac NFNT/FONT resource
STARTPROPERTIES 17
FOUNDRY "Fondu"
FAMILY_NAME "Courier"
WEIGHT_NAME "Medium"
SLANT "R"
SETWIDTH_NAME "Normal"
ADD_STYLE_NAME ""
PIXEL_SIZE 14
POINT_SIZE 130
RESOLUTION_X 75
RESOLUTION_Y 75
SPACING "P"
AVERAGE_WIDTH 80
CHARSET_REGISTRY "MacRoman"
CHARSET_ENCODING "1"
FONT_ASCENT 11
FONT_DESCENT 3
FACE_NAME "Courier"
ENDPROPERTIES
CHARS 223
STARTCHAR space
ENCODING 32
SWIDTH 600 0
DWIDTH 8 0
BBX 0 0 0 -3
BITMAP
ENDCHAR
STARTCHAR exclam
ENCODING 33
SWIDTH 600 0
DWIDTH 8 0
BBX 1 9 3 0
BITMAP
80
80
80
80
80
80
80
00
80
ENDCHAR
STARTCHAR quotedbl
ENCODING 34
SWIDTH 600 0
DWIDTH 8 0
BBX 3 3 2 6
BITMAP
A0
A0
A0
ENDCHAR
STARTCHAR numbersign
ENCODING 35
SWIDTH 600 0
DWIDTH 8 0
BBX 7 8 0 1
BITMAP
14
14
7E
28
28
FC
50
50
ENDCHAR
STARTCHAR dollar
ENCODING 36
SWIDTH 600 0
DWIDTH 8 0
BBX 5 12 1 -2
BITMAP
20
20
70
88
80
70
08
08
88
70
20
20
ENDCHAR
STARTCHAR percent
ENCODING 37
SWIDTH 600 0
DWIDTH 8 0
BBX 7 9 0 0
BITMAP
60
90
94
68
10
2C
52
12
0C
ENDCHAR
STARTCHAR ampersand
ENCODING 38
SWIDTH 600 0
DWIDTH 8 0
BBX 8 9 0 0
BITMAP
30
48
40
20
50
8A
84
8A
71
ENDCHAR
STARTCHAR quotesingle
ENCODING 39
SWIDTH 600 0
DWIDTH 8 0
BBX 1 3 3 6
BITMAP
80
80
80
ENDCHAR
STARTCHAR parenleft
ENCODING 40
SWIDTH 600 0
DWIDTH 8 0
BBX 3 12 2 -3
BITMAP
20
40
40
80
80
80
80
80
80
40
40
20
ENDCHAR
STARTCHAR parenright
ENCODING 41
SWIDTH 600 0
DWIDTH 8 0
BBX 3 12 2 -3
BITMAP
80
40
40
20
20
20
20
20
20
40
40
80
ENDCHAR
STARTCHAR asterisk
ENCODING 42
SWIDTH 600 0
DWIDTH 8 0
BBX 5 6 1 4
BITMAP
20
20
F8
20
50
88
ENDCHAR
STARTCHAR plus
ENCODING 43
SWIDTH 600 0
DWIDTH 8 0
BBX 7 7 0 0
BITMAP
10
10
10
FE
10
10
10
ENDCHAR
STARTCHAR comma
ENCODING 44
SWIDTH 600 0
DWIDTH 8 0
BBX 2 3 2 -2
BITMAP
40
40
80
ENDCHAR
STARTCHAR hyphen
ENCODING 45
SWIDTH 600 0
DWIDTH 8 0
BBX 7 1 0 3
BITMAP
FE
ENDCHAR
STARTCHAR period
ENCODING 46
SWIDTH 600 0
DWIDTH 8 0
BBX 1 1 3 0
BITMAP
80
ENDCHAR
STARTCHAR slash
ENCODING 47
SWIDTH 600 0
DWIDTH 8 0
BBX 5 9 2 0
BITMAP
08
10
10
20
20
40
40
80
80
ENDCHAR
STARTCHAR zero
ENCODING 48
SWIDTH 600 0
DWIDTH 8 0
BBX 5 9 1 0
BITMAP
70
88
88
88
88
88
88
88
70
ENDCHAR
STARTCHAR one
ENCODING 49
SWIDTH 600 0
DWIDTH 8 0
BBX 5 9 1 0
BITMAP
20
60
A0
20
20
20
20
20
F8
ENDCHAR
STARTCHAR two
ENCODING 50
SWIDTH 600 0
DWIDTH 8 0
BBX 6 9 1 0
BITMAP
78
84
04
08
10
20
40
84
FC
ENDCHAR
STARTCHAR three
ENCODING 51
SWIDTH 600 0
DWIDTH 8 0
BBX 6 9 1 0
BITMAP
78
84
04
04
38
04
04
84
78
ENDCHAR
STARTCHAR four
ENCODING 52
SWIDTH 600 0
DWIDTH 8 0
BBX 6 9 1 0
BITMAP
08
18
28
48
88
FC
08
08
3C
ENDCHAR
STARTCHAR five
ENCODING 53
SWIDTH 600 0
DWIDTH 8 0
BBX 6 9 1 0
BITMAP
FC
80
80
F0
08
04
04
88
70
ENDCHAR
STARTCHAR six
ENCODING 54
SWIDTH 600 0
DWIDTH 8 0
BBX 6 9 1 0
BITMAP
30
40
80
B0
C8
84
84
48
30
ENDCHAR
STARTCHAR seven
ENCODING 55
SWIDTH 600 0
DWIDTH 8 0
BBX 6 9 1 0
BITMAP
FC
84
04
08
08
10
10
20
20
ENDCHAR
STARTCHAR eight
ENCODING 56
SWIDTH 600 0
DWIDTH 8 0
BBX 6 9 1 0
BITMAP
78
84
84
84
78
84
84
84
78
ENDCHAR
STARTCHAR nine
ENCODING 57
SWIDTH 600 0
DWIDTH 8 0
BBX 6 9 1 0
BITMAP
30
48
84
84
4C
34
04
08
30
ENDCHAR
STARTCHAR colon
ENCODING 58
SWIDTH 600 0
DWIDTH 8 0
BBX 1 7 3 0
BITMAP
80
00
00
00
00
00
80
ENDCHAR
STARTCHAR semicolon
ENCODING 59
SWIDTH 600 0
DWIDTH 8 0
BBX 2 9 2 -2
BITMAP
40
00
00
00
00
00
40
40
80
ENDCHAR
STARTCHAR less
ENCODING 60
SWIDTH 600 0
DWIDTH 8 0
BBX 6 5 0 1
BITMAP
0C
30
C0
30
0C
ENDCHAR
STARTCHAR equal
ENCODING 61
SWIDTH 600 0
DWIDTH 8 0
BBX 6 3 0 2
BITMAP
FC
00
FC
ENDCHAR
STARTCHAR greater
ENCODING 62
SWIDTH 600 0
DWIDTH 8 0
BBX 6 5 0 1
BITMAP
C0
30
0C
30
C0
ENDCHAR
STARTCHAR question
ENCODING 63
SWIDTH 600 0
DWIDTH 8 0
BBX 6 9 0 0
BITMAP
30
48
84
04
08
10
10
00
10
ENDCHAR
STARTCHAR at
ENCODING 64
SWIDTH 600 0
DWIDTH 8 0
BBX 6 9 1 0
BITMAP
38
44
9C
A4
A4
9C
80
40
38
ENDCHAR
STARTCHAR A
ENCODING 65
SWIDTH 600 0
DWIDTH 8 0
BBX 7 9 0 0
BITMAP
30
10
10
28
28
7C
44
44
EE
ENDCHAR
STARTCHAR B
ENCODING 66
SWIDTH 600 0
DWIDTH 8 0
BBX 7 9 0 0
BITMAP
FC
42
42
42
7C
42
42
42
FC
ENDCHAR
STARTCHAR C
ENCODING 67
SWIDTH 600 0
DWIDTH 8 0
BBX 6 9 0 0
BITMAP
34
4C
84
80
80
80
80
44
38
ENDCHAR
STARTCHAR D
ENCODING 68
SWIDTH 600 0
DWIDTH 8 0
BBX 7 9 0 0
BITMAP
F8
44
42
42
42
42
42
44
F8
ENDCHAR
STARTCHAR E
ENCODING 69
SWIDTH 600 0
DWIDTH 8 0
BBX 7 9 0 0
BITMAP
FE
42
40
48
78
48
40
42
FE
ENDCHAR
STARTCHAR F
ENCODING 70
SWIDTH 600 0
DWIDTH 8 0
BBX 7 9 0 0
BITMAP
FE
42
40
48
78
48
40
40
F0
ENDCHAR
STARTCHAR G
ENCODING 71
SWIDTH 600 0
DWIDTH 8 0
BBX 7 9 0 0
BITMAP
3A
46
82
80
9E
82
82
44
38
ENDCHAR
STARTCHAR H
ENCODING 72
SWIDTH 600 0
DWIDTH 8 0
BBX 7 9 0 0
BITMAP
EE
44
44
44
7C
44
44
44
EE
ENDCHAR
STARTCHAR I
ENCODING 73
SWIDTH 600 0
DWIDTH 8 0
BBX 5 9 1 0
BITMAP
F8
20
20
20
20
20
20
20
F8
ENDCHAR
STARTCHAR J
ENCODING 74
SWIDTH 600 0
DWIDTH 8 0
BBX 7 9 0 0
BITMAP
3E
04
04
04
04
84
84
48
30
ENDCHAR
STARTCHAR K
ENCODING 75
SWIDTH 600 0
DWIDTH 8 0
BBX 7 9 0 0
BITMAP
EE
44
48
50
60
50
48
44
EE
ENDCHAR
STARTCHAR L
ENCODING 76
SWIDTH 600 0
DWIDTH 8 0
BBX 7 9 0 0
BITMAP
E0
40
40
40
40
40
42
42
FE
ENDCHAR
STARTCHAR M
ENCODING 77
SWIDTH 600 0
DWIDTH 8 0
BBX 7 9 0 0
BITMAP
C6
44
6C
6C
54
54
44
44
EE
ENDCHAR
STARTCHAR N
ENCODING 78
SWIDTH 600 0
DWIDTH 8 0
BBX 8 9 0 0
BITMAP
C7
62
62
52
52
4A
46
46
E2
ENDCHAR
STARTCHAR O
ENCODING 79
SWIDTH 600 0
DWIDTH 8 0
BBX 7 9 0 0
BITMAP
38
44
82
82
82
82
82
44
38
ENDCHAR
STARTCHAR P
ENCODING 80
SWIDTH 600 0
DWIDTH 8 0
BBX 7 9 0 0
BITMAP
FC
42
42
42
7C
40
40
40
F0
ENDCHAR
STARTCHAR Q
ENCODING 81
SWIDTH 600 0
DWIDTH 8 0
BBX 8 10 0 -1
BITMAP
38
44
82
82
82
82
82
44
39
46
ENDCHAR
STARTCHAR R
ENCODING 82
SWIDTH 600 0
DWIDTH 8 0
BBX 7 9 0 0
BITMAP
F8
44
44
44
78
50
48
44
E6
ENDCHAR
STARTCHAR S
ENCODING 83
SWIDTH 600 0
DWIDTH 8 0
BBX 6 9 1 0
BITMAP
74
8C
84
60
18
04
84
C4
B8
ENDCHAR
STARTCHAR T
ENCODING 84
SWIDTH 600 0
DWIDTH 8 0
BBX 7 9 0 0
BITMAP
FE
92
92
10
10
10
10
10
7C
ENDCHAR
STARTCHAR U
ENCODING 85
SWIDTH 600 0
DWIDTH 8 0
BBX 8 9 0 0
BITMAP
E7
42
42
42
42
42
42
24
18
ENDCHAR
STARTCHAR V
ENCODING 86
SWIDTH 600 0
DWIDTH 8 0
BBX 7 9 0 0
BITMAP
EE
44
44
28
28
28
10
10
10
ENDCHAR
STARTCHAR W
ENCODING 87
SWIDTH 600 0
DWIDTH 8 0
BBX 7 9 0 0
BITMAP
EE
44
44
54
54
54
28
28
28
ENDCHAR
STARTCHAR X
ENCODING 88
SWIDTH 600 0
DWIDTH 8 0
BBX 7 9 0 0
BITMAP
EE
44
28
28
10
28
28
44
EE
ENDCHAR
STARTCHAR Y
ENCODING 89
SWIDTH 600 0
DWIDTH 8 0
BBX 7 9 0 0
BITMAP
EE
44
44
28
28
10
10
10
7C
ENDCHAR
STARTCHAR Z
ENCODING 90
SWIDTH 600 0
DWIDTH 8 0
BBX 7 9 0 0
BITMAP
FE
82
04
08
10
20
42
82
FE
ENDCHAR
STARTCHAR bracketleft
ENCODING 91
SWIDTH 600 0
DWIDTH 8 0
BBX 3 12 2 -3
BITMAP
E0
80
80
80
80
80
80
80
80
80
80
E0
ENDCHAR
STARTCHAR backslash
ENCODING 92
SWIDTH 600 0
DWIDTH 8 0
BBX 5 9 1 0
BITMAP
80
40
40
20
20
10
10
08
08
ENDCHAR
STARTCHAR bracketright
ENCODING 93
SWIDTH 600 0
DWIDTH 8 0
BBX 3 12 2 -3
BITMAP
E0
20
20
20
20
20
20
20
20
20
20
E0
ENDCHAR
STARTCHAR asciicircum
ENCODING 94
SWIDTH 600 0
DWIDTH 8 0
BBX 5 3 2 6
BITMAP
20
50
88
ENDCHAR
STARTCHAR underscore
ENCODING 95
SWIDTH 600 0
DWIDTH 8 0
BBX 8 1 0 -3
BITMAP
FF
ENDCHAR
STARTCHAR grave
ENCODING 96
SWIDTH 600 0
DWIDTH 8 0
BBX 2 2 2 7
BITMAP
80
40
ENDCHAR
STARTCHAR a
ENCODING 97
SWIDTH 600 0
DWIDTH 8 0
BBX 7 7 0 0
BITMAP
78
84
3C
44
84
8C
72
ENDCHAR
STARTCHAR b
ENCODING 98
SWIDTH 600 0
DWIDTH 8 0
BBX 7 9 0 0
BITMAP
C0
40
58
64
42
42
42
64
D8
ENDCHAR
STARTCHAR c
ENCODING 99
SWIDTH 600 0
DWIDTH 8 0
BBX 6 7 1 0
BITMAP
3C
44
80
80
80
44
38
ENDCHAR
STARTCHAR d
ENCODING 100
SWIDTH 600 0
DWIDTH 8 0
BBX 7 9 0 0
BITMAP
0C
04
34
4C
84
84
84
4C
36
ENDCHAR
STARTCHAR e
ENCODING 101
SWIDTH 600 0
DWIDTH 8 0
BBX 7 7 0 0
BITMAP
38
44
82
FE
80
44
38
ENDCHAR
STARTCHAR f
ENCODING 102
SWIDTH 600 0
DWIDTH 8 0
BBX 5 9 1 0
BITMAP
38
40
F0
40
40
40
40
40
F8
ENDCHAR
STARTCHAR g
ENCODING 103
SWIDTH 600 0
DWIDTH 8 0
BBX 7 10 0 -3
BITMAP
3A
46
82
82
82
46
3A
02
04
38
ENDCHAR
STARTCHAR h
ENCODING 104
SWIDTH 600 0
DWIDTH 8 0
BBX 8 9 0 0
BITMAP
C0
40
58
64
42
42
42
42
E7
ENDCHAR
STARTCHAR i
ENCODING 105
SWIDTH 600 0
DWIDTH 8 0
BBX 5 9 1 0
BITMAP
20
00
E0
20
20
20
20
20
F8
ENDCHAR
STARTCHAR j
ENCODING 106
SWIDTH 600 0
DWIDTH 8 0
BBX 4 12 1 -3
BITMAP
10
00
F0
10
10
10
10
10
10
10
10
E0
ENDCHAR
STARTCHAR k
ENCODING 107
SWIDTH 600 0
DWIDTH 8 0
BBX 7 9 0 0
BITMAP
C0
40
4E
48
50
60
50
48
EE
ENDCHAR
STARTCHAR l
ENCODING 108
SWIDTH 600 0
DWIDTH 8 0
BBX 5 9 1 0
BITMAP
E0
20
20
20
20
20
20
20
F8
ENDCHAR
STARTCHAR m
ENCODING 109
SWIDTH 600 0
DWIDTH 8 0
BBX 8 7 0 0
BITMAP
EC
92
92
92
92
92
DB
ENDCHAR
STARTCHAR n
ENCODING 110
SWIDTH 600 0
DWIDTH 8 0
BBX 8 7 0 0
BITMAP
DC
62
42
42
42
42
E7
ENDCHAR
STARTCHAR o
ENCODING 111
SWIDTH 600 0
DWIDTH 8 0
BBX 7 7 0 0
BITMAP
38
44
82
82
82
44
38
ENDCHAR
STARTCHAR p
ENCODING 112
SWIDTH 600 0
DWIDTH 8 0
BBX 7 10 0 -3
BITMAP
D8
64
42
42
42
64
58
40
40
E0
ENDCHAR
STARTCHAR q
ENCODING 113
SWIDTH 600 0
DWIDTH 8 0
BBX 7 10 0 -3
BITMAP
36
4C
84
84
84
4C
34
04
04
1E
ENDCHAR
STARTCHAR r
ENCODING 114
SWIDTH 600 0
DWIDTH 8 0
BBX 7 7 0 0
BITMAP
CC
52
60
40
40
40
F0
ENDCHAR
STARTCHAR s
ENCODING 115
SWIDTH 600 0
DWIDTH 8 0
BBX 6 7 1 0
BITMAP
7C
84
80
78
04
84
F8
ENDCHAR
STARTCHAR t
ENCODING 116
SWIDTH 600 0
DWIDTH 8 0
BBX 6 9 1 0
BITMAP
40
40
F8
40
40
40
40
44
38
ENDCHAR
STARTCHAR u
ENCODING 117
SWIDTH 600 0
DWIDTH 8 0
BBX 8 7 0 0
BITMAP
C6
42
42
42
42
46
3B
ENDCHAR
STARTCHAR v
ENCODING 118
SWIDTH 600 0
DWIDTH 8 0
BBX 7 7 0 0
BITMAP
EE
44
44
28
28
10
10
ENDCHAR
STARTCHAR w
ENCODING 119
SWIDTH 600 0
DWIDTH 8 0
BBX 7 7 0 0
BITMAP
EE
44
54
54
28
28
28
ENDCHAR
STARTCHAR x
ENCODING 120
SWIDTH 600 0
DWIDTH 8 0
BBX 7 7 0 0
BITMAP
EE
44
28
10
28
44
EE
ENDCHAR
STARTCHAR y
ENCODING 121
SWIDTH 600 0
DWIDTH 8 0
BBX 7 10 0 -3
BITMAP
EE
44
44
28
28
10
10
20
20
F0
ENDCHAR
STARTCHAR z
ENCODING 122
SWIDTH 600 0
DWIDTH 8 0
BBX 7 7 0 0
BITMAP
FE
84
08
10
20
42
FE
ENDCHAR
STARTCHAR braceleft
ENCODING 123
SWIDTH 600 0
DWIDTH 8 0
BBX 3 12 2 -3
BITMAP
20
40
40
40
40
80
40
40
40
40
40
20
ENDCHAR
STARTCHAR bar
ENCODING 124
SWIDTH 600 0
DWIDTH 8 0
BBX 1 12 3 -3
BITMAP
80
80
80
80
80
80
80
80
80
80
80
80
ENDCHAR
STARTCHAR braceright
ENCODING 125
SWIDTH 600 0
DWIDTH 8 0
BBX 3 12 2 -3
BITMAP
80
40
40
40
40
20
40
40
40
40
40
80
ENDCHAR
STARTCHAR asciitilde
ENCODING 126
SWIDTH 600 0
DWIDTH 8 0
BBX 6 2 1 6
BITMAP
64
98
ENDCHAR
STARTCHAR Adieresis
ENCODING 128
SWIDTH 600 0
DWIDTH 8 0
BBX 7 11 0 0
BITMAP
28
00
30
10
10
28
28
7C
44
44
EE
ENDCHAR
STARTCHAR Aring
ENCODING 129
SWIDTH 600 0
DWIDTH 8 0
BBX 7 11 0 0
BITMAP
30
48
30
10
10
28
28
7C
44
44
EE
ENDCHAR
STARTCHAR Ccedilla
ENCODING 130
SWIDTH 600 0
DWIDTH 8 0
BBX 7 12 0 -3
BITMAP
3A
46
82
80
80
80
80
44
38
10
10
20
ENDCHAR
STARTCHAR Eacute
ENCODING 131
SWIDTH 600 0
DWIDTH 8 0
BBX 7 11 0 0
BITMAP
08
10
FE
42
40
48
78
48
40
42
FE
ENDCHAR
STARTCHAR Ntilde
ENCODING 132
SWIDTH 600 0
DWIDTH 8 0
BBX 7 11 0 0
BITMAP
34
58
CE
44
64
64
54
54
4C
4C
E4
ENDCHAR
STARTCHAR Odieresis
ENCODING 133
SWIDTH 600 0
DWIDTH 8 0
BBX 7 11 0 0
BITMAP
28
00
38
44
82
82
82
82
82
44
38
ENDCHAR
STARTCHAR Udieresis
ENCODING 134
SWIDTH 600 0
DWIDTH 8 0
BBX 8 11 0 0
BITMAP
24
00
E7
42
42
42
42
42
42
42
3C
ENDCHAR
STARTCHAR aacute
ENCODING 135
SWIDTH 600 0
DWIDTH 8 0
BBX 7 10 0 0
BITMAP
08
10
00
78
84
3C
44
84
8C
76
ENDCHAR
STARTCHAR agrave
ENCODING 136
SWIDTH 600 0
DWIDTH 8 0
BBX 7 10 0 0
BITMAP
20
10
00
78
84
3C
44
84
8C
76
ENDCHAR
STARTCHAR acircumflex
ENCODING 137
SWIDTH 600 0
DWIDTH 8 0
BBX 7 10 0 0
BITMAP
10
28
00
78
84
3C
44
84
8C
76
ENDCHAR
STARTCHAR adieresis
ENCODING 138
SWIDTH 600 0
DWIDTH 8 0
BBX 7 9 0 0
BITMAP
48
00
78
84
3C
44
84
8C
76
ENDCHAR
STARTCHAR atilde
ENCODING 139
SWIDTH 600 0
DWIDTH 8 0
BBX 7 10 0 0
BITMAP
64
98
00
78
84
3C
44
84
8C
76
ENDCHAR
STARTCHAR aring
ENCODING 140
SWIDTH 600 0
DWIDTH 8 0
BBX 7 11 0 0
BITMAP
30
48
30
00
78
84
3C
44
84
8C
76
ENDCHAR
STARTCHAR ccedilla
ENCODING 141
SWIDTH 600 0
DWIDTH 8 0
BBX 6 10 1 -3
BITMAP
3C
44
80
80
80
44
38
10
10
20
ENDCHAR
STARTCHAR eacute
ENCODING 142
SWIDTH 600 0
DWIDTH 8 0
BBX 7 10 0 0
BITMAP
08
10
00
38
44
82
FE
80
44
38
ENDCHAR
STARTCHAR egrave
ENCODING 143
SWIDTH 600 0
DWIDTH 8 0
BBX 7 10 0 0
BITMAP
20
10
00
38
44
82
FE
80
44
38
ENDCHAR
STARTCHAR ecircumflex
ENCODING 144
SWIDTH 600 0
DWIDTH 8 0
BBX 7 10 0 0
BITMAP
10
28
00
38
44
82
FE
80
44
38
ENDCHAR
STARTCHAR edieresis
ENCODING 145
SWIDTH 600 0
DWIDTH 8 0
BBX 7 9 0 0
BITMAP
28
00
38
44
82
FE
80
44
38
ENDCHAR
STARTCHAR iacute
ENCODING 146
SWIDTH 600 0
DWIDTH 8 0
BBX 5 10 1 0
BITMAP
20
40
00
E0
20
20
20
20
20
F8
ENDCHAR
STARTCHAR igrave
ENCODING 147
SWIDTH 600 0
DWIDTH 8 0
BBX 5 10 1 0
BITMAP
40
20
00
E0
20
20
20
20
20
F8
ENDCHAR
STARTCHAR icircumflex
ENCODING 148
SWIDTH 600 0
DWIDTH 8 0
BBX 5 10 1 0
BITMAP
20
50
00
E0
20
20
20
20
20
F8
ENDCHAR
STARTCHAR idieresis
ENCODING 149
SWIDTH 600 0
DWIDTH 8 0
BBX 5 9 1 0
BITMAP
A0
00
E0
20
20
20
20
20
F8
ENDCHAR
STARTCHAR ntilde
ENCODING 150
SWIDTH 600 0
DWIDTH 8 0
BBX 8 10 0 0
BITMAP
32
4C
00
DC
62
42
42
42
42
E7
ENDCHAR
STARTCHAR oacute
ENCODING 151
SWIDTH 600 0
DWIDTH 8 0
BBX 7 10 0 0
BITMAP
08
10
00
38
44
82
82
82
44
38
ENDCHAR
STARTCHAR ograve
ENCODING 152
SWIDTH 600 0
DWIDTH 8 0
BBX 7 10 0 0
BITMAP
20
10
00
38
44
82
82
82
44
38
ENDCHAR
STARTCHAR ocircumflex
ENCODING 153
SWIDTH 600 0
DWIDTH 8 0
BBX 7 10 0 0
BITMAP
10
28
00
38
44
82
82
82
44
38
ENDCHAR
STARTCHAR odieresis
ENCODING 154
SWIDTH 600 0
DWIDTH 8 0
BBX 7 9 0 0
BITMAP
28
00
38
44
82
82
82
44
38
ENDCHAR
STARTCHAR otilde
ENCODING 155
SWIDTH 600 0
DWIDTH 8 0
BBX 7 10 0 0
BITMAP
64
98
00
38
44
82
82
82
44
38
ENDCHAR
STARTCHAR uacute
ENCODING 156
SWIDTH 600 0
DWIDTH 8 0
BBX 8 10 0 0
BITMAP
08
10
00
C6
42
42
42
42
46
3B
ENDCHAR
STARTCHAR ugrave
ENCODING 157
SWIDTH 600 0
DWIDTH 8 0
BBX 8 10 0 0
BITMAP
20
10
00
C6
42
42
42
42
46
3B
ENDCHAR
STARTCHAR ucircumflex
ENCODING 158
SWIDTH 600 0
DWIDTH 8 0
BBX 8 10 0 0
BITMAP
10
28
00
C6
42
42
42
42
46
3B
ENDCHAR
STARTCHAR udieresis
ENCODING 159
SWIDTH 600 0
DWIDTH 8 0
BBX 8 9 0 0
BITMAP
28
00
C6
42
42
42
42
46
3B
ENDCHAR
STARTCHAR dagger
ENCODING 160
SWIDTH 600 0
DWIDTH 8 0
BBX 5 11 1 -2
BITMAP
20
20
F8
20
20
20
20
20
20
20
20
ENDCHAR
STARTCHAR degree
ENCODING 161
SWIDTH 400 0
DWIDTH 8 0
BBX 4 4 1 5
BITMAP
60
90
90
60
ENDCHAR
STARTCHAR cent
ENCODING 162
SWIDTH 600 0
DWIDTH 8 0
BBX 5 10 1 -1
BITMAP
20
20
70
88
80
80
88
70
20
20
ENDCHAR
STARTCHAR sterling
ENCODING 163
SWIDTH 600 0
DWIDTH 8 0
BBX 6 9 1 0
BITMAP
30
48
40
40
F0
40
44
44
F8
ENDCHAR
STARTCHAR section
ENCODING 164
SWIDTH 600 0
DWIDTH 8 0
BBX 6 12 1 -3
BITMAP
3C
44
40
60
90
88
44
24
18
88
88
F0
ENDCHAR
STARTCHAR bullet
ENCODING 165
SWIDTH 600 0
DWIDTH 8 0
BBX 5 5 1 1
BITMAP
70
F8
F8
F8
70
ENDCHAR
STARTCHAR paragraph
ENCODING 166
SWIDTH 600 0
DWIDTH 8 0
BBX 7 12 0 -3
BITMAP
3E
54
94
94
94
54
34
14
14
14
14
36
ENDCHAR
STARTCHAR germandbls
ENCODING 167
SWIDTH 600 0
DWIDTH 8 0
BBX 7 9 0 0
BITMAP
38
44
44
58
44
42
52
52
CC
ENDCHAR
STARTCHAR registered
ENCODING 168
SWIDTH 600 0
DWIDTH 11 0
BBX 10 10 0 0
BITMAP
1E00
6180
4080
9C40
9240
9C40
9240
4080
6180
1E00
ENDCHAR
STARTCHAR copyright
ENCODING 169
SWIDTH 600 0
DWIDTH 11 0
BBX 10 10 0 0
BITMAP
1E00
6180
4080
8E40
9240
9040
8E40
4080
6180
1E00
ENDCHAR
STARTCHAR trademark
ENCODING 170
SWIDTH 600 0
DWIDTH 12 0
BBX 11 5 0 5
BITMAP
FC60
A6C0
2540
2440
7EE0
ENDCHAR
STARTCHAR acute
ENCODING 171
SWIDTH 600 0
DWIDTH 8 0
BBX 2 2 3 7
BITMAP
40
80
ENDCHAR
STARTCHAR dieresis
ENCODING 172
SWIDTH 600 0
DWIDTH 8 0
BBX 4 1 2 8
BITMAP
90
ENDCHAR
STARTCHAR notequal
ENCODING 173
SWIDTH 549 0
DWIDTH 8 0
BBX 7 5 0 1
BITMAP
08
FE
10
FE
20
ENDCHAR
STARTCHAR AE
ENCODING 174
SWIDTH 600 0
DWIDTH 8 0
BBX 8 9 0 0
BITMAP
3F
19
28
2A
2E
7A
48
49
EF
ENDCHAR
STARTCHAR Oslash
ENCODING 175
SWIDTH 600 0
DWIDTH 8 0
BBX 7 9 0 0
BITMAP
3A
44
8A
8A
92
A2
A2
44
B8
ENDCHAR
STARTCHAR infinity
ENCODING 176
SWIDTH 713 0
DWIDTH 10 0
BBX 9 5 0 2
BITMAP
6300
9480
8880
9480
6300
ENDCHAR
STARTCHAR plusminus
ENCODING 177
SWIDTH 549 0
DWIDTH 8 0
BBX 7 7 0 0
BITMAP
10
10
10
FE
10
10
FE
ENDCHAR
STARTCHAR lessequal
ENCODING 178
SWIDTH 549 0
DWIDTH 8 0
BBX 6 6 1 0
BITMAP
0C
30
C0
30
0C
FC
ENDCHAR
STARTCHAR greaterequal
ENCODING 179
SWIDTH 549 0
DWIDTH 8 0
BBX 6 6 1 0
BITMAP
C0
30
0C
30
C0
FC
ENDCHAR
STARTCHAR yen
ENCODING 180
SWIDTH 600 0
DWIDTH 8 0
BBX 7 9 0 0
BITMAP
EE
44
28
10
7C
10
7C
10
38
ENDCHAR
STARTCHAR mu
ENCODING 181
SWIDTH 576 0
DWIDTH 8 0
BBX 7 9 0 -2
BITMAP
88
88
88
88
88
8A
F4
80
80
ENDCHAR
STARTCHAR partialdiff
ENCODING 182
SWIDTH 494 0
DWIDTH 7 0
BBX 5 10 1 0
BITMAP
70
08
08
08
78
88
88
88
88
70
ENDCHAR
STARTCHAR summation
ENCODING 183
SWIDTH 713 0
DWIDTH 10 0
BBX 8 11 1 -1
BITMAP
FF
41
20
10
08
04
08
10
20
41
FF
ENDCHAR
STARTCHAR product
ENCODING 184
SWIDTH 823 0
DWIDTH 12 0
BBX 9 11 1 -1
BITMAP
FF80
4100
4100
4100
4100
4100
4100
4100
4100
4100
E380
ENDCHAR
STARTCHAR pi
ENCODING 185
SWIDTH 549 0
DWIDTH 8 0
BBX 7 8 0 0
BITMAP
02
7C
A4
24
24
24
24
48
ENDCHAR
STARTCHAR integral
ENCODING 186
SWIDTH 274 0
DWIDTH 4 0
BBX 3 12 0 -3
BITMAP
20
40
40
40
40
40
40
40
40
40
40
80
ENDCHAR
STARTCHAR ordfeminine
ENCODING 187
SWIDTH 600 0
DWIDTH 8 0
BBX 5 7 1 2
BITMAP
60
90
70
90
68
00
F8
ENDCHAR
STARTCHAR ordmasculine
ENCODING 188
SWIDTH 600 0
DWIDTH 8 0
BBX 4 7 1 2
BITMAP
60
90
90
90
60
00
F0
ENDCHAR
STARTCHAR Omega
ENCODING 189
SWIDTH 768 0
DWIDTH 11 0
BBX 8 10 1 0
BITMAP
3C
42
81
81
81
81
42
42
24
E7
ENDCHAR
STARTCHAR ae
ENCODING 190
SWIDTH 600 0
DWIDTH 8 0
BBX 7 7 0 0
BITMAP
6C
92
72
9E
90
92
6C
ENDCHAR
STARTCHAR oslash
ENCODING 191
SWIDTH 600 0
DWIDTH 8 0
BBX 7 7 0 0
BITMAP
3A
44
8A
92
A2
44
B8
ENDCHAR
STARTCHAR questiondown
ENCODING 192
SWIDTH 600 0
DWIDTH 8 0
BBX 6 9 1 -3
BITMAP
20
00
20
20
40
80
84
48
30
ENDCHAR
STARTCHAR exclamdown
ENCODING 193
SWIDTH 600 0
DWIDTH 8 0
BBX 1 10 3 -3
BITMAP
80
00
80
80
80
80
80
80
80
80
ENDCHAR
STARTCHAR logicalnot
ENCODING 194
SWIDTH 600 0
DWIDTH 10 0
BBX 8 3 1 1
BITMAP
FF
01
01
ENDCHAR
STARTCHAR radical
ENCODING 195
SWIDTH 549 0
DWIDTH 8 0
BBX 7 9 0 0
BITMAP
06
04
04
08
08
D0
50
20
20
ENDCHAR
STARTCHAR florin
ENCODING 196
SWIDTH 600 0
DWIDTH 8 0
BBX 5 12 1 -3
BITMAP
18
20
20
20
70
20
20
20
20
20
20
C0
ENDCHAR
STARTCHAR approxequal
ENCODING 197
SWIDTH 549 0
DWIDTH 8 0
BBX 6 4 1 1
BITMAP
64
98
64
98
ENDCHAR
STARTCHAR Delta
ENCODING 198
SWIDTH 612 0
DWIDTH 9 0
BBX 7 9 1 0
BITMAP
10
10
10
28
28
44
44
82
FE
ENDCHAR
STARTCHAR guillemotleft
ENCODING 199
SWIDTH 600 0
DWIDTH 8 0
BBX 6 5 0 1
BITMAP
24
48
90
48
24
ENDCHAR
STARTCHAR guillemotright
ENCODING 200
SWIDTH 600 0
DWIDTH 8 0
BBX 6 5 1 1
BITMAP
90
48
24
48
90
ENDCHAR
STARTCHAR ellipsis
ENCODING 201
SWIDTH 600 0
DWIDTH 8 0
BBX 7 1 0 0
BITMAP
92
ENDCHAR
STARTCHAR nbspace
ENCODING 202
SWIDTH 600 0
DWIDTH 8 0
BBX 0 0 8 -3
BITMAP
ENDCHAR
STARTCHAR Agrave
ENCODING 203
SWIDTH 600 0
DWIDTH 8 0
BBX 7 11 0 0
BITMAP
20
10
30
10
10
28
28
7C
44
44
EE
ENDCHAR
STARTCHAR Atilde
ENCODING 204
SWIDTH 600 0
DWIDTH 8 0
BBX 7 11 0 0
BITMAP
64
98
30
10
10
28
28
7C
44
44
EE
ENDCHAR
STARTCHAR Otilde
ENCODING 205
SWIDTH 600 0
DWIDTH 8 0
BBX 7 11 0 0
BITMAP
32
4C
38
44
82
82
82
82
82
44
38
ENDCHAR
STARTCHAR OE
ENCODING 206
SWIDTH 600 0
DWIDTH 8 0
BBX 8 9 0 0
BITMAP
3F
49
88
8A
8E
8A
88
49
3F
ENDCHAR
STARTCHAR oe
ENCODING 207
SWIDTH 600 0
DWIDTH 8 0
BBX 7 7 0 0
BITMAP
6C
92
92
9E
90
92
6C
ENDCHAR
STARTCHAR endash
ENCODING 208
SWIDTH 600 0
DWIDTH 8 0
BBX 5 1 1 3
BITMAP
F8
ENDCHAR
STARTCHAR emdash
ENCODING 209
SWIDTH 600 0
DWIDTH 8 0
BBX 7 1 0 3
BITMAP
FE
ENDCHAR
STARTCHAR quotedblleft
ENCODING 210
SWIDTH 600 0
DWIDTH 8 0
BBX 6 3 0 6
BITMAP
24
48
D8
ENDCHAR
STARTCHAR quotedblright
ENCODING 211
SWIDTH 600 0
DWIDTH 8 0
BBX 6 3 2 6
BITMAP
6C
48
90
ENDCHAR
STARTCHAR quoteleft
ENCODING 212
SWIDTH 600 0
DWIDTH 8 0
BBX 3 3 3 6
BITMAP
20
40
C0
ENDCHAR
STARTCHAR quoteright
ENCODING 213
SWIDTH 600 0
DWIDTH 8 0
BBX 3 3 3 6
BITMAP
60
40
80
ENDCHAR
STARTCHAR divide
ENCODING 214
SWIDTH 549 0
DWIDTH 8 0
BBX 7 5 0 1
BITMAP
10
00
FE
00
10
ENDCHAR
STARTCHAR lozenge
ENCODING 215
SWIDTH 494 0
DWIDTH 7 0
BBX 5 10 1 0
BITMAP
20
20
50
50
88
88
50
50
20
20
ENDCHAR
STARTCHAR ydieresis
ENCODING 216
SWIDTH 600 0
DWIDTH 8 0
BBX 7 12 0 -3
BITMAP
28
00
EE
44
44
28
28
10
10
20
20
F0
ENDCHAR
STARTCHAR Ydieresis
ENCODING 217
SWIDTH 600 0
DWIDTH 8 0
BBX 7 11 0 0
BITMAP
28
00
EE
44
44
28
28
10
10
10
7C
ENDCHAR
STARTCHAR fraction
ENCODING 218
SWIDTH 600 0
DWIDTH 8 0
BBX 5 9 1 0
BITMAP
08
10
10
20
20
40
40
80
80
ENDCHAR
STARTCHAR currency
ENCODING 219
SWIDTH 600 0
DWIDTH 8 0
BBX 8 8 0 0
BITMAP
1E
21
40
FE
40
FE
21
1E
ENDCHAR
STARTCHAR guilsinglleft
ENCODING 220
SWIDTH 600 0
DWIDTH 8 0
BBX 3 5 1 1
BITMAP
20
40
80
40
20
ENDCHAR
STARTCHAR guilsinglright
ENCODING 221
SWIDTH 600 0
DWIDTH 8 0
BBX 3 5 2 1
BITMAP
80
40
20
40
80
ENDCHAR
STARTCHAR fi
ENCODING 222
SWIDTH 600 0
DWIDTH 8 0
BBX 8 9 0 0
BITMAP
3C
44
F0
44
44
44
44
44
FF
ENDCHAR
STARTCHAR fl
ENCODING 223
SWIDTH 600 0
DWIDTH 8 0
BBX 8 9 0 0
BITMAP
3C
44
F4
44
44
44
44
44
FF
ENDCHAR
STARTCHAR daggerdbl
ENCODING 224
SWIDTH 600 0
DWIDTH 8 0
BBX 5 11 1 -2
BITMAP
20
20
F8
20
20
20
20
20
F8
20
20
ENDCHAR
STARTCHAR periodcentered
ENCODING 225
SWIDTH 600 0
DWIDTH 8 0
BBX 1 1 3 4
BITMAP
80
ENDCHAR
STARTCHAR quotesinglbase
ENCODING 226
SWIDTH 600 0
DWIDTH 8 0
BBX 2 3 2 -2
BITMAP
40
40
80
ENDCHAR
STARTCHAR quotedblbase
ENCODING 227
SWIDTH 600 0
DWIDTH 8 0
BBX 5 3 1 -2
BITMAP
48
48
90
ENDCHAR
STARTCHAR perthousand
ENCODING 228
SWIDTH 600 0
DWIDTH 8 0
BBX 8 9 0 1
BITMAP
30
48
33
0C
30
C0
36
49
36
ENDCHAR
STARTCHAR Acircumflex
ENCODING 229
SWIDTH 600 0
DWIDTH 8 0
BBX 7 11 0 0
BITMAP
10
28
74
10
10
28
28
7C
44
44
EE
ENDCHAR
STARTCHAR Ecircumflex
ENCODING 230
SWIDTH 600 0
DWIDTH 8 0
BBX 7 11 0 0
BITMAP
10
28
FE
42
40
48
78
48
40
42
FE
ENDCHAR
STARTCHAR Aacute
ENCODING 231
SWIDTH 600 0
DWIDTH 8 0
BBX 7 11 0 0
BITMAP
08
10
30
10
10
28
28
7C
44
44
EE
ENDCHAR
STARTCHAR Edieresis
ENCODING 232
SWIDTH 600 0
DWIDTH 8 0
BBX 7 11 0 0
BITMAP
28
00
FE
42
40
48
78
48
40
42
FE
ENDCHAR
STARTCHAR Egrave
ENCODING 233
SWIDTH 600 0
DWIDTH 8 0
BBX 7 11 0 0
BITMAP
20
10
FE
42
40
48
78
48
40
42
FE
ENDCHAR
STARTCHAR Iacute
ENCODING 234
SWIDTH 600 0
DWIDTH 8 0
BBX 5 11 1 0
BITMAP
10
20
F8
20
20
20
20
20
20
20
F8
ENDCHAR
STARTCHAR Icircumflex
ENCODING 235
SWIDTH 600 0
DWIDTH 8 0
BBX 5 11 1 0
BITMAP
20
50
F8
20
20
20
20
20
20
20
F8
ENDCHAR
STARTCHAR Idieresis
ENCODING 236
SWIDTH 600 0
DWIDTH 8 0
BBX 5 11 1 0
BITMAP
50
00
F8
20
20
20
20
20
20
20
F8
ENDCHAR
STARTCHAR Igrave
ENCODING 237
SWIDTH 600 0
DWIDTH 8 0
BBX 5 11 1 0
BITMAP
40
20
F8
20
20
20
20
20
20
20
F8
ENDCHAR
STARTCHAR Oacute
ENCODING 238
SWIDTH 600 0
DWIDTH 8 0
BBX 7 11 0 0
BITMAP
08
10
38
44
82
82
82
82
82
44
38
ENDCHAR
STARTCHAR Ocircumflex
ENCODING 239
SWIDTH 600 0
DWIDTH 8 0
BBX 7 11 0 0
BITMAP
10
28
38
44
82
82
82
82
82
44
38
ENDCHAR
STARTCHAR apple
ENCODING 240
SWIDTH 790 0
DWIDTH 11 0
BBX 10 11 0 0
BITMAP
0600
0400
3180
7FC0
FF80
FF00
FF00
FF80
7FC0
7F80
3300
ENDCHAR
STARTCHAR Ograve
ENCODING 241
SWIDTH 600 0
DWIDTH 8 0
BBX 7 11 0 0
BITMAP
20
10
38
44
82
82
82
82
82
44
38
ENDCHAR
STARTCHAR Uacute
ENCODING 242
SWIDTH 600 0
DWIDTH 8 0
BBX 8 11 0 0
BITMAP
08
10
E7
42
42
42
42
42
42
24
18
ENDCHAR
STARTCHAR Ucircumflex
ENCODING 243
SWIDTH 600 0
DWIDTH 8 0
BBX 8 11 0 0
BITMAP
08
14
E7
42
42
42
42
42
42
24
18
ENDCHAR
STARTCHAR Ugrave
ENCODING 244
SWIDTH 600 0
DWIDTH 8 0
BBX 8 11 0 0
BITMAP
10
08
E7
42
42
42
42
42
42
42
3C
ENDCHAR
STARTCHAR dotlessi
ENCODING 245
SWIDTH 600 0
DWIDTH 8 0
BBX 5 7 1 0
BITMAP
E0
20
20
20
20
20
F8
ENDCHAR
STARTCHAR circumflex
ENCODING 246
SWIDTH 600 0
DWIDTH 8 0
BBX 5 3 1 6
BITMAP
20
50
88
ENDCHAR
STARTCHAR tilde
ENCODING 247
SWIDTH 600 0
DWIDTH 8 0
BBX 6 2 1 6
BITMAP
64
98
ENDCHAR
STARTCHAR macron
ENCODING 248
SWIDTH 600 0
DWIDTH 8 0
BBX 5 1 1 6
BITMAP
F8
ENDCHAR
STARTCHAR breve
ENCODING 249
SWIDTH 600 0
DWIDTH 8 0
BBX 5 2 1 6
BITMAP
88
70
ENDCHAR
STARTCHAR dotaccent
ENCODING 250
SWIDTH 600 0
DWIDTH 8 0
BBX 1 1 3 7
BITMAP
80
ENDCHAR
STARTCHAR ring
ENCODING 251
SWIDTH 600 0
DWIDTH 8 0
BBX 4 4 1 5
BITMAP
60
90
90
60
ENDCHAR
STARTCHAR cedilla
ENCODING 252
SWIDTH 600 0
DWIDTH 8 0
BBX 4 5 1 -3
BITMAP
40
60
10
90
60
ENDCHAR
STARTCHAR hungarumlaut
ENCODING 253
SWIDTH 600 0
DWIDTH 8 0
BBX 5 4 0 6
BITMAP
48
48
90
90
ENDCHAR
STARTCHAR ogonek
ENCODING 254
SWIDTH 600 0
DWIDTH 8 0
BBX 4 4 2 -3
BITMAP
40
80
90
60
ENDCHAR
STARTCHAR caron
ENCODING 255
SWIDTH 600 0
DWIDTH 8 0
BBX 3 2 2 9
BITMAP
A0
40
ENDCHAR
ENDFONT
